<svg width="20" height="20" viewBox="0 0 20 20" fill="none" xmlns="http://www.w3.org/2000/svg">
<path d="M14.7915 5V10C14.7915 10.345 14.5115 10.625 14.1665 10.625C13.8215 10.625 13.5415 10.345 13.5415 10V6.5092L5.44151 14.6092C5.31984 14.7308 5.15982 14.7925 4.99982 14.7925C4.83982 14.7925 4.67979 14.7317 4.55813 14.6092C4.31396 14.365 4.31396 13.9691 4.55813 13.725L12.6581 5.625H9.16648C8.82148 5.625 8.54148 5.345 8.54148 5C8.54148 4.655 8.82148 4.375 9.16648 4.375H14.1665C14.2481 4.375 14.3291 4.39175 14.4057 4.42342C14.5582 4.48675 14.6799 4.60843 14.7441 4.76176C14.7749 4.83759 14.7915 4.91833 14.7915 5Z" fill="#0D0E0F"/>
</svg>
