<svg width="56" height="56" viewBox="0 0 56 56" fill="none" xmlns="http://www.w3.org/2000/svg">
<path d="M25.0913 30.6312V28.8609C25.0913 26.4513 27.0583 24.5335 29.4186 24.5335C30.5988 24.5335 31.6807 24.9761 32.5166 25.8121C32.91 26.2055 33.2543 26.6972 33.451 27.2381C36.008 24.8777 37.6308 21.4355 37.6308 17.6491C37.6308 10.4696 31.8282 4.66699 24.6487 4.66699C17.4692 4.66699 11.6666 10.4696 11.6666 17.6491C11.6666 24.8286 17.4692 30.6312 24.6487 30.6312C24.7962 30.6312 24.9438 30.6312 25.0913 30.6312ZM23.321 22.3207C22.9276 22.3207 22.485 22.1731 22.19 21.8781L18.7478 18.4359C18.1085 17.7966 18.1085 16.8131 18.7478 16.1738C19.387 15.5346 20.3705 15.5346 21.0098 16.1738L23.2718 18.4359L28.2385 13.4692C28.8777 12.83 29.8612 12.83 30.5005 13.4692C31.1398 14.1085 31.1398 15.092 30.5005 15.7313L24.4028 21.8781C24.1078 22.1731 23.7144 22.3207 23.321 22.3207Z" fill="white"/>
<path d="M42.7448 39.04C42.7448 37.909 41.8105 37.0239 40.7286 37.0239C39.991 37.0239 39.3517 37.4173 39.0075 37.9582V37.909C39.0075 36.778 38.0732 35.8928 36.9914 35.8928C36.2537 35.8928 35.6145 36.2862 35.2703 36.8272V36.778C35.2703 35.647 34.3359 34.7618 33.2541 34.7618C32.5165 34.7618 31.8772 35.1552 31.533 35.6961V28.8609C31.533 28.32 31.3363 27.779 30.9429 27.4348C30.5495 27.0414 30.0577 26.8447 29.5168 26.8447C28.3858 26.8447 27.5007 27.779 27.5007 28.8609V41.4496C27.5007 41.5479 27.4515 41.6463 27.304 41.6954C27.2056 41.7446 27.0581 41.6954 27.0089 41.6463L24.9436 39.5809C24.2551 38.8925 23.1241 38.7941 22.3373 39.3351C21.8456 39.6793 21.5505 40.171 21.4522 40.7611C21.3538 41.3512 21.5505 41.9413 21.8948 42.3839L27.0581 48.5799C28.5333 50.3502 30.6478 51.3337 32.959 51.3337H36.057C37.8273 51.3337 39.5484 50.6452 40.827 49.3667C42.1055 48.0881 42.794 46.4162 42.794 44.5967L42.7448 39.04Z" fill="white"/>
</svg>
