<svg width="152" height="56" viewBox="0 0 152 56" fill="none" xmlns="http://www.w3.org/2000/svg">
<path d="M4.43314 52.002H12.9162V55.9997H0V35.332H4.43314V52.002Z" fill="#0D0E0F"/>
<path d="M22.0939 35.332V39.0597H20.5436V52.2981H22.0939V55.9997H14.5688V52.2981H16.1191V39.0597H14.5688V35.332H22.0939Z" fill="#0D0E0F"/>
<path d="M38.9504 35.332H43.3487V55.9997H39.1507L29.2132 42.4999V55.9997H24.8062V35.332H28.9519L38.9504 48.9189V35.332Z" fill="#0D0E0F"/>
<path d="M55.0954 44.7731L65.0591 55.9997H59.6069L52.2909 47.5776L50.5142 49.3805V55.9997H46.0811V35.332H50.5142V43.7019L58.8231 35.332H64.4755L55.0954 44.7731Z" fill="#0D0E0F"/>
<path d="M66.8677 35.332H79.7752V39.3558H71.2921V43.0835H78.7561V47.1073H71.2921V52.002H79.7752V55.9997H66.8677V35.332Z" fill="#0D0E0F"/>
<path d="M90.9076 35.332C92.4057 35.332 93.7251 35.6064 94.8704 36.1507C96.0201 36.6907 96.9781 37.4288 97.7446 38.3629C98.511 39.2992 99.0902 40.3988 99.4865 41.6638C99.8871 42.9245 100.087 44.2636 100.087 45.6789C100.087 47.1203 99.8784 48.466 99.4604 49.7201C99.0423 50.9743 98.4631 52.0695 97.7272 53.0036C96.989 53.9333 96.1159 54.6649 95.1056 55.1984C94.0953 55.734 92.9979 55.9997 91.8134 55.9997H82.5726V35.332H90.9076ZM90.9338 52.002C91.7699 52.002 92.484 51.8344 93.0763 51.4969C93.6685 51.155 94.1584 50.6934 94.5482 50.1121C94.9358 49.5263 95.2232 48.8557 95.4104 48.1002C95.5955 47.3403 95.6891 46.5455 95.6891 45.7138C95.6891 44.8776 95.602 44.0764 95.4279 43.3099C95.2537 42.5391 94.9706 41.862 94.583 41.2806C94.1933 40.6949 93.6968 40.2268 93.0937 39.8784C92.4884 39.53 91.7699 39.3558 90.9338 39.3558H86.9971V52.002H90.9338Z" fill="#0D0E0F"/>
<path d="M109.583 49.1509C109.953 49.4078 110.249 49.7388 110.471 50.1438C110.698 50.5509 110.811 51.0017 110.811 51.4937C110.811 51.8835 110.735 52.2515 110.584 52.5998C110.432 52.9439 110.227 53.2422 109.966 53.4969C109.709 53.7473 109.409 53.9476 109.06 54.0979C108.716 54.2438 108.351 54.3156 107.963 54.3156H103.652V44.8223H107.824C108.183 44.8223 108.516 44.8919 108.825 45.0313C109.139 45.1706 109.413 45.3579 109.653 45.5887C109.89 45.8217 110.075 46.0939 110.21 46.4074C110.343 46.7166 110.41 47.0497 110.41 47.409C110.41 47.7922 110.334 48.1297 110.184 48.4193C110.038 48.7111 109.838 48.9549 109.583 49.1509ZM105.681 48.3845H107.824C108.067 48.3845 108.272 48.3017 108.442 48.1319C108.61 47.9642 108.695 47.7574 108.695 47.5135C108.695 47.2762 108.61 47.0758 108.442 46.9125C108.272 46.7514 108.067 46.6687 107.824 46.6687H105.681V48.3845ZM107.963 52.4779C108.229 52.4779 108.455 52.3647 108.642 52.1382C108.827 51.9118 108.921 51.6483 108.921 51.3457C108.921 51.0321 108.827 50.7687 108.642 50.5531C108.455 50.3397 108.229 50.2309 107.963 50.2309H105.681V52.4779H107.963Z" fill="#FFD454"/>
<path d="M118.746 47.6529C118.746 47.9555 118.703 48.2429 118.615 48.5151C118.533 48.7894 118.417 49.0377 118.267 49.2641C118.115 49.4906 117.932 49.6909 117.718 49.8651C117.503 50.0393 117.27 50.1786 117.022 50.2831L120.166 54.3156H117.797L114.862 50.4834H113.956V54.3156H111.918V44.8223H116.02C116.39 44.8223 116.743 44.8985 117.074 45.0487C117.409 45.1946 117.701 45.3949 117.945 45.6497C118.193 45.9066 118.389 46.2049 118.528 46.5467C118.672 46.8908 118.746 47.2587 118.746 47.6529ZM115.759 48.637C116.02 48.637 116.242 48.5412 116.429 48.3496C116.614 48.158 116.708 47.9272 116.708 47.6529C116.708 47.3807 116.614 47.1477 116.429 46.9561C116.242 46.7645 116.02 46.6687 115.759 46.6687H113.956V48.637H115.759Z" fill="#FFD454"/>
<path d="M124.57 44.8223V46.538H123.856V52.6173H124.57V54.3156H121.112V52.6173H121.826V46.538H121.112V44.8223H124.57Z" fill="#FFD454"/>
<path d="M130.28 52.47C130.703 52.47 131.121 52.372 131.535 52.1738C131.946 51.9779 132.362 51.6469 132.78 51.181L134.095 52.4264C133.566 53.1058 132.965 53.6196 132.292 53.968C131.617 54.3164 130.925 54.4906 130.211 54.4906C129.566 54.4906 128.961 54.3599 128.399 54.0986C127.842 53.833 127.354 53.4781 126.936 53.0361C126.522 52.5897 126.198 52.0693 125.96 51.4771C125.721 50.8805 125.603 50.2469 125.603 49.5784C125.603 48.9121 125.725 48.2851 125.969 47.6972C126.217 47.1049 126.553 46.5867 126.971 46.1382C127.389 45.6918 127.881 45.3412 128.451 45.0843C129.026 44.823 129.636 44.6924 130.28 44.6924C130.877 44.6924 131.447 44.8056 131.987 45.0321C132.527 45.2541 133.054 45.6221 133.573 46.1382L132.388 47.5665C132.016 47.2181 131.661 46.9873 131.326 46.8698C130.995 46.7478 130.646 46.6869 130.28 46.6869C129.915 46.6869 129.566 46.7631 129.235 46.9133C128.909 47.0657 128.626 47.2704 128.382 47.5317C128.142 47.7886 127.955 48.0934 127.816 48.4462C127.681 48.8011 127.615 49.1778 127.615 49.5784C127.615 49.979 127.681 50.3536 127.816 50.7019C127.955 51.0503 128.142 51.3595 128.382 51.6251C128.626 51.8864 128.909 52.0933 129.235 52.2435C129.566 52.3959 129.915 52.47 130.28 52.47Z" fill="#FFD454"/>
<path d="M139.244 49.1596L143.825 54.3156H141.317L137.963 50.4486L137.145 51.276V54.3156H135.107V44.8223H137.145V48.6632L140.959 44.8223H143.555L139.244 49.1596Z" fill="#FFD454"/>
<path d="M150.672 49.4304C151.049 49.6524 151.336 49.9355 151.535 50.2839C151.731 50.6323 151.831 51.0373 151.831 51.4945C151.831 51.9191 151.726 52.3175 151.517 52.6877C151.312 53.06 151.023 53.3888 150.646 53.6719C150.309 53.9332 149.923 54.1335 149.488 54.2728C149.057 54.4057 148.602 54.4775 148.12 54.4906C147.637 54.4906 147.175 54.4231 146.736 54.2903C146.3 54.1574 145.913 53.9571 145.577 53.6893C145.066 53.3061 144.717 52.8423 144.532 52.2958L146.405 51.4248C146.405 51.5119 146.435 51.623 146.5 51.7558C146.564 51.8908 146.662 52.0214 146.797 52.1477C146.929 52.2762 147.104 52.3829 147.319 52.47C147.533 52.5571 147.794 52.6006 148.103 52.6006C148.351 52.6006 148.573 52.5723 148.765 52.5135C148.957 52.4504 149.115 52.372 149.244 52.2784C149.377 52.1804 149.475 52.0737 149.54 51.9561C149.61 51.8342 149.645 51.7101 149.645 51.5816C149.645 51.4422 149.597 51.3116 149.505 51.1897C149.412 51.0634 149.266 50.9632 149.07 50.8935C148.715 50.7673 148.338 50.6627 147.938 50.58C147.541 50.4929 147.156 50.3862 146.779 50.2578C146.407 50.1249 146.058 49.9507 145.734 49.7352C145.414 49.5218 145.161 49.2213 144.976 48.8381C144.802 48.5028 144.715 48.1413 144.715 47.7581C144.715 47.3292 144.815 46.9133 145.02 46.5127C145.222 46.112 145.499 45.7724 145.847 45.4937C146.172 45.2389 146.54 45.0408 146.953 44.9014C147.365 44.7621 147.798 44.6924 148.251 44.6924C148.708 44.6924 149.144 44.7599 149.557 44.8927C149.976 45.0277 150.346 45.2237 150.672 45.4849C150.997 45.7245 151.251 46.0032 151.439 46.3211L149.915 47.3662C149.727 47.1114 149.492 46.9046 149.209 46.7478C148.93 46.5911 148.617 46.5127 148.268 46.5127C147.785 46.5127 147.411 46.6215 147.145 46.8349C146.884 47.0505 146.753 47.3314 146.753 47.6797C146.753 47.8365 146.825 47.9802 146.971 48.1065C147.121 48.2284 147.313 48.3395 147.546 48.4375C147.783 48.5376 148.051 48.6247 148.347 48.6988C148.643 48.775 148.935 48.8512 149.227 48.9252C149.516 49.0014 149.788 49.0798 150.045 49.1604C150.307 49.2431 150.516 49.3324 150.672 49.4304Z" fill="#FFD454"/>
<mask id="mask0_0_418" style="mask-type:luminance" maskUnits="userSpaceOnUse" x="95" y="0" width="38" height="42">
<path d="M95.0382 0H132.385V41.8056H95.0382V0Z" fill="white"/>
</mask>
<g mask="url(#mask0_0_418)">
<path d="M118.014 39.7153L130.497 24.8526C130.723 24.576 130.925 24.2843 131.102 23.9729C131.278 23.6615 131.428 23.3393 131.548 23.0018C131.67 22.6643 131.759 22.3203 131.823 21.9675C131.884 21.617 131.914 21.2599 131.914 20.9028C131.914 20.5457 131.884 20.1908 131.823 19.8381C131.759 19.4853 131.67 19.1413 131.548 18.8038C131.428 18.4685 131.278 18.1441 131.102 17.8327C130.925 17.5235 130.723 17.2296 130.497 16.953L126.839 12.5983C126.701 12.435 126.54 12.3043 126.351 12.2064C126.161 12.1084 125.963 12.0518 125.75 12.0322C125.539 12.0148 125.332 12.0387 125.129 12.1019C124.927 12.1672 124.746 12.2673 124.583 12.4067C124.42 12.5439 124.291 12.7072 124.193 12.8966C124.095 13.086 124.036 13.2863 124.019 13.4997C124.001 13.7109 124.025 13.92 124.089 14.1225C124.154 14.325 124.254 14.5079 124.391 14.6712L128.047 19.0281C128.265 19.2915 128.432 19.5833 128.548 19.9056C128.663 20.2278 128.722 20.561 128.722 20.9028C128.722 21.2446 128.663 21.5778 128.548 21.9C128.432 22.2223 128.265 22.5162 128.047 22.7797L115.566 37.6403C115.444 37.7905 115.309 37.9233 115.159 38.0409C115.009 38.1585 114.848 38.2587 114.676 38.3414C114.504 38.422 114.323 38.4851 114.138 38.5265C113.951 38.5678 113.763 38.5896 113.572 38.5896C113.38 38.5896 113.193 38.5678 113.006 38.5265C112.821 38.4851 112.64 38.422 112.468 38.3414C112.296 38.2587 112.135 38.1585 111.985 38.0409C111.834 37.9233 111.699 37.7905 111.577 37.6403L99.0966 22.7797C98.8789 22.5162 98.7112 22.2223 98.5958 21.9C98.4804 21.5778 98.4216 21.2446 98.4216 20.9028C98.4216 20.561 98.4804 20.2278 98.5958 19.9056C98.7112 19.5833 98.8789 19.2915 99.0966 19.0281L111.577 4.16532C111.699 4.01726 111.834 3.88444 111.985 3.76468C112.135 3.6471 112.296 3.54694 112.468 3.46638C112.64 3.38364 112.821 3.3205 113.006 3.27913C113.193 3.23776 113.38 3.21598 113.572 3.21598C113.763 3.21598 113.951 3.23776 114.138 3.27913C114.323 3.3205 114.504 3.38364 114.676 3.46638C114.848 3.54694 115.009 3.6471 115.159 3.76468C115.309 3.88444 115.444 4.01726 115.566 4.16532L118.258 7.36824C118.395 7.52936 118.558 7.65565 118.745 7.75146C118.935 7.84508 119.133 7.90169 119.342 7.91694C119.551 7.93435 119.758 7.9104 119.958 7.84508C120.158 7.77976 120.337 7.6796 120.498 7.5446C120.659 7.40743 120.788 7.2463 120.886 7.05905C120.984 6.8718 121.042 6.67365 121.06 6.46245C121.079 6.25124 121.06 6.04657 120.997 5.84407C120.936 5.64158 120.838 5.45868 120.705 5.29538L118.014 2.09246C117.879 1.92915 117.735 1.77238 117.583 1.6265C117.43 1.47844 117.271 1.34126 117.104 1.21062C116.936 1.07998 116.762 0.960223 116.583 0.849176C116.402 0.740307 116.215 0.640149 116.026 0.548699C115.834 0.459426 115.638 0.378863 115.438 0.311365C115.238 0.243866 115.035 0.185077 114.828 0.139352C114.621 0.0936267 114.414 0.0587887 114.203 0.034838C113.994 0.013064 113.783 0 113.572 0C113.361 0 113.149 0.013064 112.94 0.034838C112.729 0.0587887 112.522 0.0936267 112.315 0.139352C112.109 0.185077 111.906 0.243866 111.706 0.311365C111.505 0.378863 111.31 0.459426 111.118 0.548699C110.928 0.640149 110.741 0.740307 110.561 0.849176C110.382 0.960223 110.208 1.07998 110.04 1.21062C109.872 1.34126 109.714 1.47844 109.561 1.6265C109.409 1.77238 109.265 1.92915 109.13 2.09246L96.6493 16.953C96.4206 17.2296 96.2181 17.5235 96.0418 17.8327C95.8654 18.1441 95.7173 18.4685 95.5954 18.8038C95.4757 19.1413 95.3842 19.4853 95.3232 19.8381C95.2601 20.1908 95.2296 20.5457 95.2296 20.9028C95.2296 21.2599 95.2601 21.617 95.3232 21.9675C95.3842 22.3203 95.4757 22.6665 95.5954 23.0018C95.7173 23.3393 95.8654 23.6615 96.0418 23.9729C96.2181 24.2843 96.4206 24.576 96.6493 24.8526L109.13 39.7153C109.265 39.8764 109.409 40.0332 109.561 40.1791C109.714 40.3272 109.872 40.4665 110.04 40.595C110.208 40.7256 110.382 40.8454 110.561 40.9564C110.741 41.0653 110.928 41.1676 111.118 41.2569C111.31 41.3462 111.505 41.4267 111.706 41.4942C111.906 41.5639 112.109 41.6205 112.315 41.6663C112.522 41.712 112.729 41.7468 112.94 41.7708C113.149 41.7947 113.361 41.8056 113.572 41.8056C113.783 41.8056 113.994 41.7947 114.203 41.7708C114.414 41.7468 114.621 41.712 114.828 41.6663C115.035 41.6205 115.238 41.5639 115.438 41.4942C115.638 41.4267 115.834 41.3462 116.026 41.2569C116.215 41.1676 116.402 41.0653 116.583 40.9564C116.762 40.8454 116.936 40.7256 117.104 40.595C117.271 40.4665 117.43 40.3272 117.583 40.1791C117.735 40.0332 117.879 39.8764 118.014 39.7153Z" fill="#FFBF00"/>
</g>
<mask id="mask1_0_418" style="mask-type:luminance" maskUnits="userSpaceOnUse" x="112" y="0" width="39" height="42">
<path d="M112.875 0H150.221V41.8056H112.875V0Z" fill="white"/>
</mask>
<g mask="url(#mask1_0_418)">
<path d="M127.095 2.09246L114.612 16.953C114.385 17.2296 114.183 17.5235 114.006 17.8327C113.83 18.1441 113.68 18.4685 113.56 18.8038C113.438 19.1413 113.347 19.4853 113.286 19.8381C113.225 20.1908 113.194 20.5457 113.194 20.9028C113.194 21.2599 113.225 21.617 113.286 21.9675C113.347 22.3203 113.438 22.6643 113.56 23.0018C113.68 23.3393 113.83 23.6615 114.006 23.9729C114.183 24.2843 114.385 24.576 114.612 24.8526L118.27 29.2073C118.407 29.3706 118.568 29.5013 118.757 29.5992C118.947 29.6972 119.147 29.7538 119.358 29.7734C119.57 29.7908 119.776 29.7669 119.979 29.7038C120.181 29.6384 120.364 29.5383 120.525 29.3989C120.689 29.2617 120.819 29.0984 120.915 28.909C121.013 28.7196 121.072 28.5193 121.089 28.3059C121.107 28.0947 121.085 27.8856 121.02 27.6831C120.954 27.4785 120.854 27.2956 120.717 27.1323L117.061 22.7797C116.843 22.5162 116.676 22.2223 116.56 21.9C116.445 21.5778 116.386 21.2446 116.386 20.9028C116.386 20.561 116.445 20.2278 116.56 19.9056C116.676 19.5833 116.843 19.2915 117.061 19.0281L129.542 4.16532C129.664 4.01726 129.799 3.88444 129.949 3.76468C130.099 3.6471 130.26 3.54694 130.432 3.46638C130.605 3.38364 130.785 3.3205 130.97 3.27913C131.158 3.23776 131.345 3.21598 131.536 3.21598C131.728 3.21598 131.915 3.23776 132.103 3.27913C132.288 3.3205 132.468 3.38364 132.64 3.46638C132.812 3.54694 132.973 3.6471 133.124 3.76468C133.274 3.88444 133.409 4.01726 133.531 4.16532L146.012 19.0281C146.229 19.2915 146.397 19.5833 146.512 19.9056C146.628 20.2278 146.687 20.561 146.687 20.9028C146.687 21.2446 146.628 21.5778 146.512 21.9C146.397 22.2223 146.229 22.5162 146.012 22.7797L133.531 37.6403C133.409 37.7905 133.274 37.9233 133.124 38.0409C132.973 38.1585 132.812 38.2587 132.64 38.3414C132.468 38.422 132.288 38.4851 132.103 38.5265C131.915 38.5678 131.728 38.5896 131.536 38.5896C131.345 38.5896 131.158 38.5678 130.97 38.5265C130.785 38.4851 130.605 38.422 130.432 38.3414C130.26 38.2587 130.099 38.1585 129.949 38.0409C129.799 37.9233 129.664 37.7905 129.542 37.6403L126.851 34.4374C126.714 34.2784 126.55 34.15 126.363 34.0563C126.174 33.9605 125.975 33.9039 125.766 33.8887C125.557 33.8712 125.35 33.8952 125.15 33.9605C124.95 34.0258 124.771 34.126 124.61 34.261C124.449 34.3982 124.321 34.5593 124.223 34.7466C124.125 34.9338 124.066 35.1341 124.048 35.3432C124.029 35.5544 124.048 35.7612 124.112 35.9615C124.173 36.164 124.271 36.3469 124.403 36.5102L127.095 39.7153C127.23 39.8764 127.373 40.0332 127.526 40.1791C127.678 40.3272 127.837 40.4665 128.005 40.595C128.172 40.7256 128.347 40.8454 128.525 40.9564C128.706 41.0653 128.893 41.1676 129.083 41.2569C129.274 41.3462 129.47 41.4267 129.67 41.4942C129.871 41.5639 130.073 41.6205 130.28 41.6663C130.487 41.712 130.694 41.7468 130.905 41.7708C131.114 41.7947 131.325 41.8056 131.536 41.8056C131.748 41.8056 131.959 41.7947 132.168 41.7708C132.379 41.7468 132.586 41.712 132.793 41.6663C133 41.6205 133.202 41.5639 133.402 41.4942C133.603 41.4267 133.799 41.3462 133.99 41.2569C134.18 41.1676 134.367 41.0653 134.548 40.9564C134.728 40.8454 134.9 40.7256 135.068 40.595C135.236 40.4665 135.395 40.3272 135.547 40.1791C135.7 40.0332 135.843 39.8764 135.978 39.7153L148.459 24.8526C148.688 24.576 148.89 24.2843 149.066 23.9729C149.243 23.6615 149.391 23.3393 149.513 23.0018C149.633 22.6665 149.724 22.3203 149.787 21.9675C149.848 21.617 149.879 21.2599 149.879 20.9028C149.879 20.5457 149.848 20.1908 149.787 19.8381C149.724 19.4853 149.633 19.1413 149.513 18.8038C149.391 18.4685 149.243 18.1441 149.066 17.8327C148.89 17.5235 148.688 17.2296 148.459 16.953L135.978 2.09246C135.843 1.92915 135.7 1.77238 135.547 1.6265C135.395 1.47844 135.236 1.34126 135.068 1.21062C134.9 1.07998 134.728 0.960223 134.548 0.849176C134.367 0.740307 134.18 0.640149 133.99 0.548699C133.799 0.459426 133.603 0.378863 133.402 0.311365C133.202 0.243866 133 0.185077 132.793 0.139352C132.586 0.0936267 132.379 0.0587887 132.168 0.034838C131.959 0.013064 131.748 0 131.536 0C131.325 0 131.114 0.013064 130.905 0.034838C130.694 0.0587887 130.487 0.0936267 130.28 0.139352C130.073 0.185077 129.871 0.243866 129.67 0.311365C129.47 0.378863 129.274 0.459426 129.083 0.548699C128.893 0.640149 128.706 0.740307 128.525 0.849176C128.347 0.960223 128.172 1.07998 128.005 1.21062C127.837 1.34126 127.678 1.47844 127.526 1.6265C127.373 1.77238 127.23 1.92915 127.095 2.09246Z" fill="#FFBF00"/>
</g>
</svg>
