<svg width="56" height="56" viewBox="0 0 56 56" fill="none" xmlns="http://www.w3.org/2000/svg">
<path d="M23.8204 26.1631C20.5813 26.4584 17.8989 28.6564 16.8804 31.627H26.8412C25.4974 29.652 23.8397 27.0437 23.8204 26.1631Z" fill="white"/>
<path d="M33.6959 26.1631C33.6761 27.0441 31.8594 29.6525 30.3855 31.6275H40.6346C39.6156 28.6568 36.9332 26.4588 33.6959 26.1631Z" fill="white"/>
<path d="M29.3124 29.4652C29.8845 29.1695 30.327 28.5547 30.327 27.9297C30.327 27.9297 29.4764 28.3056 28.6098 28.3056C27.7433 28.3056 26.8927 27.9297 26.8927 27.9297C26.8927 28.5547 27.3352 29.1695 27.9073 29.4652L27.7561 31.6271H29.4636L29.3124 29.4652Z" fill="white"/>
<path d="M40.9834 48.1387H16.5309C16.2929 48.1387 16.0994 48.3317 16.0994 48.5697C16.0994 48.8077 16.2929 48.9999 16.5309 48.9999H40.9834C41.2219 48.9999 41.4145 48.8077 41.4145 48.5697C41.4145 48.3317 41.2219 48.1387 40.9834 48.1387Z" fill="white"/>
<path d="M17.9843 47.7851H39.5289C40.5391 47.7851 41.3602 46.964 41.3584 45.9715L43.5141 33.4578C43.5141 32.4476 42.693 31.627 41.6837 31.627H40.6347H30.3856H29.4636H27.7561H26.8411H16.8803H15.83C14.8198 31.627 13.9982 32.4476 14 33.4763L16.153 45.9543C16.153 46.964 16.9746 47.7851 17.9843 47.7851ZM15.83 31.8425H41.6837C42.574 31.8425 43.2995 32.5675 43.3012 33.4402L41.1455 45.9543C41.1455 46.8446 40.4201 47.5705 39.5289 47.5705H17.9843C17.0932 47.5705 16.3681 46.8446 16.3668 45.9362L14.2142 33.4578C14.2138 32.5675 14.9384 31.8425 15.83 31.8425Z" fill="white" stroke="white" stroke-width="1.5"/>
<path d="M28.7566 40.2646C29.185 40.2646 29.5315 39.9186 29.5315 39.4893C29.5315 39.0631 29.185 38.7158 28.7566 38.7158C28.3287 38.7158 27.9818 39.0631 27.9818 39.4893C27.9823 39.9186 28.3291 40.2646 28.7566 40.2646Z" fill="white" stroke="white"/>
<path d="M21.1811 21.6294C21.3697 21.6294 21.5478 21.5179 21.7064 21.3253C22.0802 21.7559 22.5553 22.1296 23.1296 22.4223C23.1957 22.4562 23.2676 22.48 23.3354 22.5113C24.3893 25.303 26.4207 27.1964 28.7575 27.1964C31.8802 27.1964 34.4563 23.8168 34.8799 19.4274C35.02 20.6963 35.485 21.6298 36.0382 21.6298C36.7024 21.6298 37.241 20.2869 37.241 18.631C37.241 17.2224 36.8505 16.0438 36.3255 15.7216C35.255 12.0167 32.2037 9.33301 28.6103 9.33301C25.016 9.33301 21.9643 12.0167 20.8933 15.7216C20.3688 16.0438 19.9783 17.2224 19.9783 18.6314C19.9783 20.2864 20.5173 21.6294 21.1811 21.6294ZM34.1597 19.181C33.8613 23.1535 31.5571 26.2444 28.7575 26.2444C26.9174 26.2444 25.295 24.905 24.3117 22.8613C24.8741 23.0107 25.4664 23.0953 26.0782 23.0953C26.2355 23.0953 26.3946 23.0852 26.5538 23.0746C26.7574 23.3496 27.102 23.5047 27.4621 23.4426C27.9712 23.3544 28.3119 22.8705 28.2242 22.3619C28.136 21.8528 27.6521 21.5121 27.1435 21.6003C26.8226 21.6558 26.5696 21.8687 26.4475 22.1455C25.5224 22.1984 24.6317 22.0551 23.8582 21.7263C23.6188 20.9956 23.4487 20.2066 23.3716 19.3732C23.614 19.434 23.9115 19.5513 24.235 19.7774C24.235 19.7774 23.6197 16.1271 24.9181 15.615C24.9181 15.615 29.2198 17.7067 32.1124 15.615C32.1124 15.615 33.8291 18.3313 33.3474 19.3988L34.221 18.3952C34.2166 18.6623 34.1967 18.9245 34.1597 19.181ZM28.6103 10.7346C31.7475 10.7346 34.3823 13.2724 35.1227 16.6882C35.0478 16.9077 34.9848 17.1536 34.9381 17.4207C34.9288 17.3325 34.9222 17.244 34.9094 17.1571C34.4546 14.0115 31.8731 11.602 28.7575 11.602C25.641 11.602 23.0591 14.0133 22.6042 17.1593C22.5575 17.4837 22.5333 17.816 22.5333 18.1536C22.5333 18.2916 22.5386 18.4269 22.5461 18.5627C22.5575 18.7601 22.5765 18.9558 22.6042 19.148C22.6091 19.2066 22.6135 19.2652 22.6188 19.3234C22.6765 19.9739 22.7863 20.5993 22.9335 21.1983C22.6153 20.9572 22.3539 20.6818 22.1569 20.3772C22.2988 19.8849 22.3834 19.2828 22.3834 18.6301C22.3834 17.8888 22.275 17.2118 22.0969 16.6886C22.8365 13.2724 25.4722 10.7346 28.6103 10.7346Z" fill="white"/>
</svg>
