<svg width="56" height="56" viewBox="0 0 56 56" fill="none" xmlns="http://www.w3.org/2000/svg">
<path d="M17.6985 11.667C10.5012 11.6668 4.66643 15.9214 4.66669 21.1695C4.66909 23.7468 6.10717 26.2129 8.65123 28.0022L8.64814 28.0085L6.37835 30.9981C6.27738 31.1312 6.22311 31.2939 6.22394 31.4609C6.22478 31.628 6.28051 31.7901 6.3828 31.9221C6.48509 32.0542 6.62807 32.1488 6.7896 32.1914C6.95113 32.234 7.12231 32.2222 7.27641 32.1577L12.6143 29.9201V29.9137C14.2222 30.4124 15.9512 30.6703 17.6985 30.672C20.2401 30.6717 22.6096 30.1408 24.6142 29.2232C24.5483 29.6242 24.5125 30.0325 24.5125 30.4474C24.5124 33.258 26.0776 35.7809 28.5342 37.5723C30.9908 39.3638 34.3466 40.4556 38.0443 40.4558C39.759 40.4542 41.449 40.1807 43.0423 39.7115L48.2725 41.9029C48.8357 42.1388 49.4454 41.9219 49.7612 41.5138C50.0769 41.1064 50.1365 40.4593 49.7676 39.973L47.7453 37.3109C50.1174 35.4755 51.5782 33.0506 51.5807 30.4474C51.5808 27.6366 50.0161 25.1124 47.5592 23.3209C45.1023 21.5294 41.7424 20.4435 38.0445 20.4436C35.3286 20.4438 32.7982 21.0298 30.672 22.0506C30.7087 21.7603 30.729 21.4666 30.729 21.1695C30.7292 15.9218 24.8953 11.6675 17.6985 11.667ZM11.8023 18.003H24.0653C24.1237 18.0025 24.1815 18.0136 24.2356 18.0355C24.2897 18.0575 24.3389 18.0898 24.3805 18.1308C24.4221 18.1718 24.4552 18.2206 24.4779 18.2744C24.5006 18.3282 24.5124 18.386 24.5127 18.4444C24.5132 18.5033 24.502 18.5617 24.4797 18.6162C24.4573 18.6707 24.4245 18.7202 24.3828 18.7619C24.3412 18.8035 24.2916 18.8365 24.2371 18.8588C24.1826 18.8811 24.1242 18.8923 24.0653 18.8919H11.8023C11.7438 18.8917 11.686 18.8801 11.632 18.8575C11.578 18.8349 11.529 18.8018 11.4878 18.7603C11.4467 18.7187 11.414 18.6693 11.392 18.6151C11.37 18.5609 11.3589 18.5029 11.3593 18.4444C11.36 18.3273 11.407 18.2151 11.49 18.1325C11.5729 18.0498 11.6851 18.0032 11.8023 18.003ZM11.8023 20.5021H24.0653C24.1237 20.5016 24.1815 20.5126 24.2356 20.5345C24.2897 20.5565 24.3389 20.5889 24.3805 20.6299C24.4221 20.6709 24.4552 20.7197 24.4779 20.7735C24.5006 20.8273 24.5124 20.8851 24.5127 20.9435C24.5132 21.0024 24.502 21.0608 24.4797 21.1153C24.4573 21.1698 24.4243 21.2192 24.3826 21.2609C24.341 21.3025 24.2916 21.3355 24.2371 21.3578C24.1826 21.3801 24.1242 21.3914 24.0653 21.3909H11.8023C11.7438 21.3908 11.686 21.379 11.632 21.3564C11.578 21.3339 11.529 21.3008 11.4878 21.2592C11.4467 21.2177 11.414 21.1684 11.392 21.1142C11.3699 21.06 11.3589 21.002 11.3593 20.9435C11.36 20.8263 11.407 20.7142 11.49 20.6315C11.5729 20.5489 11.6851 20.5023 11.8023 20.5021ZM38.0445 21.4494C41.5438 21.4493 44.7059 22.4868 46.9655 24.1345C49.2252 25.7822 50.5751 28.0101 50.575 30.4474C50.5728 32.8376 49.2416 35.1542 46.8026 36.8696C46.703 36.9387 46.6316 37.0415 46.6016 37.159C46.5717 37.2765 46.5852 37.4008 46.6395 37.5092L46.6459 37.5156C46.6591 37.542 46.6745 37.5672 46.6921 37.5909L48.965 40.5836C49.0653 40.7156 49.0368 40.7986 48.965 40.891C48.8934 40.9838 48.8167 41.0367 48.6635 40.9724L43.6348 38.8624V39.1946C43.6352 39.1152 43.6167 39.0367 43.581 38.9657C43.5454 38.8947 43.4934 38.8332 43.4293 38.7861C43.3653 38.739 43.2911 38.7077 43.2127 38.6948C43.1343 38.6819 43.0538 38.6877 42.9781 38.7118C41.4209 39.1948 39.7426 39.4484 38.0447 39.45C34.5455 39.4498 31.3873 38.4064 29.128 36.7586C26.8686 35.111 25.5187 32.8844 25.5188 30.4473C25.5187 28.0102 26.8686 25.7821 29.128 24.1344C31.3873 22.4867 34.5454 21.4496 38.0445 21.4494ZM11.8023 23.0011H24.0653C24.1242 23.0006 24.1826 23.0119 24.2371 23.0342C24.2916 23.0565 24.341 23.0895 24.3826 23.1311C24.4243 23.1728 24.4573 23.2222 24.4797 23.2767C24.502 23.3312 24.5132 23.3896 24.5127 23.4485C24.5124 23.5069 24.5006 23.5647 24.4779 23.6185C24.4552 23.6723 24.4221 23.7211 24.3805 23.7621C24.3389 23.8031 24.2897 23.8355 24.2356 23.8575C24.1815 23.8794 24.1237 23.8904 24.0653 23.8899H11.8023C11.6851 23.8897 11.5729 23.8431 11.49 23.7605C11.407 23.6778 11.36 23.5657 11.3593 23.4485C11.3589 23.39 11.3699 23.332 11.392 23.2778C11.414 23.2236 11.4467 23.1742 11.4878 23.1327C11.529 23.0911 11.578 23.058 11.632 23.0355C11.686 23.0129 11.7438 23.0012 11.8023 23.0011ZM31.6807 27.2824C31.6224 27.282 31.5644 27.2931 31.5103 27.315C31.4562 27.3369 31.4069 27.3694 31.3654 27.4104C31.3238 27.4514 31.2908 27.5001 31.2681 27.5539C31.2455 27.6077 31.2335 27.6655 31.2332 27.7238C31.2327 27.7827 31.2441 27.8411 31.2664 27.8956C31.2887 27.9502 31.3216 27.9997 31.3632 28.0414C31.4049 28.083 31.4544 28.116 31.5089 28.1383C31.5634 28.1606 31.6218 28.1718 31.6807 28.1713H43.9436C44.0021 28.1712 44.0601 28.1595 44.114 28.1369C44.168 28.1143 44.2171 28.0813 44.2582 28.0397C44.2994 27.9981 44.3318 27.9488 44.3539 27.8946C44.3759 27.8404 44.387 27.7824 44.3865 27.7238C44.3859 27.6067 44.3389 27.4946 44.2559 27.4119C44.1729 27.3293 44.0607 27.2827 43.9436 27.2824H31.6807ZM31.6807 29.7815C31.6224 29.7811 31.5644 29.7921 31.5103 29.814C31.4562 29.8359 31.4069 29.8684 31.3654 29.9094C31.3238 29.9504 31.2908 29.9992 31.2681 30.053C31.2455 30.1068 31.2335 30.1644 31.2332 30.2228C31.2327 30.2817 31.2441 30.3401 31.2664 30.3946C31.2887 30.4491 31.3216 30.4987 31.3632 30.5403C31.4049 30.582 31.4544 30.6149 31.5089 30.6373C31.5634 30.6596 31.6218 30.6709 31.6807 30.6704H43.9436C44.0021 30.6703 44.0601 30.6585 44.114 30.6359C44.168 30.6133 44.2171 30.5803 44.2582 30.5387C44.2994 30.4971 44.3318 30.4478 44.3539 30.3936C44.3759 30.3394 44.387 30.2813 44.3865 30.2228C44.3859 30.1057 44.3389 29.9937 44.2559 29.911C44.1729 29.8283 44.0607 29.7818 43.9436 29.7815H31.6807ZM31.6807 32.2805C31.6218 32.28 31.5634 32.2913 31.5089 32.3137C31.4544 32.336 31.4049 32.3689 31.3632 32.4106C31.3216 32.4522 31.2887 32.5017 31.2664 32.5562C31.2441 32.6107 31.2327 32.6691 31.2332 32.728C31.2335 32.7864 31.2455 32.8442 31.2681 32.898C31.2908 32.9518 31.3238 33.0006 31.3654 33.0416C31.4069 33.0826 31.4562 33.1149 31.5103 33.1368C31.5644 33.1588 31.6224 33.1699 31.6807 33.1694H43.9436C44.0607 33.1691 44.1729 33.1226 44.2559 33.0399C44.3389 32.9573 44.3859 32.8451 44.3865 32.728C44.387 32.6695 44.3759 32.6115 44.3539 32.5573C44.3318 32.5031 44.2994 32.4538 44.2582 32.4122C44.2171 32.3706 44.168 32.3375 44.114 32.3149C44.0601 32.2923 44.0021 32.2807 43.9436 32.2805H31.6807Z" fill="white"/>
</svg>
