<svg width="24" height="24" viewBox="0 0 24 24" fill="none" xmlns="http://www.w3.org/2000/svg">
<path fill-rule="evenodd" clip-rule="evenodd" d="M18 21.0003H14.8C14.634 21.0003 14.5 20.8662 14.5 20.7002V16.5003C14.5 15.1193 13.381 14.0003 12 14.0003C10.619 14.0003 9.5 15.1193 9.5 16.5003V20.7002C9.5 20.8662 9.36595 21.0003 9.19995 21.0003H6C4 21.0003 3 20.0003 3 18.0003V11.6513C3 9.65327 3.52305 9.34632 4.43005 8.58633L10.394 3.58523C11.323 2.80623 12.6781 2.80623 13.6071 3.58523L19.571 8.58633C20.477 9.34632 21.001 9.65327 21.001 11.6513V18.0003C21 20.0003 20 21.0003 18 21.0003Z" fill="#0D0E0F"/>
</svg>
