<svg width="24" height="24" viewBox="0 0 24 24" fill="none" xmlns="http://www.w3.org/2000/svg">
<path d="M12 21.7501C11.894 21.7501 11.7879 21.728 11.6889 21.683C11.3619 21.534 3.66598 17.9651 2.43198 11.6091C1.95498 9.15006 2.43398 6.75105 3.71298 5.19305C4.74798 3.93105 6.23594 3.26003 8.01694 3.25103C8.02594 3.25103 8.03494 3.25103 8.04294 3.25103C10.0749 3.25103 11.314 4.40806 11.999 5.39306C12.687 4.40406 13.9359 3.24203 15.9809 3.25103C17.7629 3.26003 19.2519 3.93105 20.2879 5.19305C21.5649 6.75005 22.0429 9.14904 21.5649 11.61C20.3329 17.966 12.6359 21.5361 12.3089 21.6841C12.2119 21.7281 12.106 21.7501 12 21.7501ZM8.04196 4.75005C8.03596 4.75005 8.03099 4.75005 8.02499 4.75005C6.68699 4.75605 5.62702 5.22503 4.87302 6.14403C3.87402 7.36103 3.513 9.29705 3.905 11.323C4.86 16.247 10.593 19.447 12 20.165C13.407 19.447 19.14 16.247 20.094 11.323C20.488 9.29605 20.127 7.36003 19.13 6.14403C18.376 5.22603 17.3159 4.75803 15.9749 4.75103C15.9689 4.75103 15.963 4.75103 15.958 4.75103C13.586 4.75103 12.745 7.12806 12.711 7.22906C12.607 7.53206 12.3209 7.73803 12.0009 7.73803C11.9989 7.73803 11.9979 7.73803 11.9969 7.73803C11.6759 7.73703 11.3899 7.53204 11.2879 7.22704C11.2549 7.12704 10.413 4.75005 8.04196 4.75005Z" fill="#0D0E0F"/>
</svg>
