<svg width="24" height="24" viewBox="0 0 24 24" fill="none" xmlns="http://www.w3.org/2000/svg">
<path d="M15.7729 11.2659C15.9039 11.2309 16 11.1157 16 10.9807V6.81082C16 6.11082 15.52 5.50086 14.84 5.35086L4.83997 3.0408C3.89997 2.8208 3 3.54076 3 4.50076V19.0008C3 19.0808 3.00001 19.1607 3.01001 19.2307C3.08001 20.3307 3.67002 20.9207 4.77002 20.9907C4.84002 21.0007 4.92 21.0008 5 21.0008H7.19995C7.36595 21.0008 7.5 20.8667 7.5 20.7007V17.1077C7.5 16.1117 8.18094 15.1879 9.16394 15.0279C10.4169 14.8239 11.5 15.7858 11.5 17.0008V20.7007C11.5 20.8667 11.634 21.0008 11.8 21.0008H13.3669C13.6299 21.0008 13.7531 20.6968 13.5811 20.4978C13.2051 20.0628 13 19.5487 13 18.9707V14.0308C13 12.7168 14.0559 11.7159 15.7729 11.2659ZM8 12.7498H7C6.586 12.7498 6.25 12.4138 6.25 11.9998C6.25 11.5858 6.586 11.2498 7 11.2498H8C8.414 11.2498 8.75 11.5858 8.75 11.9998C8.75 12.4138 8.414 12.7498 8 12.7498ZM8 9.74978H7C6.586 9.74978 6.25 9.41378 6.25 8.99978C6.25 8.58578 6.586 8.24978 7 8.24978H8C8.414 8.24978 8.75 8.58578 8.75 8.99978C8.75 9.41378 8.414 9.74978 8 9.74978ZM12 12.7498H11C10.586 12.7498 10.25 12.4138 10.25 11.9998C10.25 11.5858 10.586 11.2498 11 11.2498H12C12.414 11.2498 12.75 11.5858 12.75 11.9998C12.75 12.4138 12.414 12.7498 12 12.7498ZM12 9.74978H11C10.586 9.74978 10.25 9.41378 10.25 8.99978C10.25 8.58578 10.586 8.24978 11 8.24978H12C12.414 8.24978 12.75 8.58578 12.75 8.99978C12.75 9.41378 12.414 9.74978 12 9.74978ZM18 19.4597C19.74 19.4597 21.13 19.0399 22 18.3399V18.9698C22 20.3298 20 20.9998 18 20.9998C16 20.9998 14 20.3298 14 18.9698V18.3399C14.87 19.0399 16.26 19.4597 18 19.4597ZM18 17.0598C19.74 17.0598 21.13 16.6397 22 15.9397V16.4297C22 17.7997 20 18.4597 18 18.4597C16 18.4597 14 17.7997 14 16.4297V15.9397C14.88 16.6397 16.27 17.0598 18 17.0598ZM18 11.9998C20 11.9998 22 12.6798 22 14.0298C22 15.3898 20 16.0598 18 16.0598C16 16.0598 14 15.3898 14 14.0298C14 12.6798 16 11.9998 18 11.9998Z" fill="#0D0E0F"/>
</svg>
