<svg width="24" height="24" viewBox="0 0 24 24" fill="none" xmlns="http://www.w3.org/2000/svg">
<path fill-rule="evenodd" clip-rule="evenodd" d="M19.5699 8.58633L13.606 3.58523C12.677 2.80623 11.3219 2.80623 10.3929 3.58523L4.42896 8.58633C3.52296 9.34632 2.99902 9.65327 2.99902 11.6513V18.0003C2.99902 20.0003 3.99902 21.0003 5.99902 21.0003H17.999C19.999 21.0003 20.999 20.0003 20.999 18.0003V11.6513C21 9.65227 20.4769 9.34632 19.5699 8.58633ZM16.53 13.3302L14.295 15.5652C13.691 16.1692 12.709 16.1693 12.106 15.5663L10.835 14.2973L8.53101 16.5293C8.38501 16.6753 8.19298 16.7493 8.00098 16.7493C7.80898 16.7493 7.61695 16.6763 7.47095 16.5293C7.17795 16.2363 7.17795 15.7613 7.47095 15.4683L9.703 13.2362C10.308 12.6332 11.291 12.6323 11.894 13.2353L13.165 14.5043L15.4709 12.2693C15.7639 11.9763 16.239 11.9763 16.532 12.2693C16.825 12.5623 16.823 13.0372 16.53 13.3302Z" fill="#0D0E0F"/>
</svg>
