<svg width="24" height="24" viewBox="0 0 24 24" fill="none" xmlns="http://www.w3.org/2000/svg">
<g clip-path="url(#clip0_0_396)">
<path d="M19.3228 23H4.67721C2.65339 23 1 21.3466 1 19.3228V4.67721C1 2.65339 2.65339 1 4.67721 1H19.3228C21.3466 1 23 2.65339 23 4.67721V19.3228C23 21.3556 21.3556 23 19.3228 23Z" stroke="#0D0E0F" stroke-width="1.5"/>
<path d="M8.01105 15.9977C9.07717 17.0638 10.4957 17.6511 12.0045 17.6511C13.5133 17.6511 14.9228 17.0638 15.9979 15.9977C17.064 14.9315 17.6513 13.5131 17.6513 12.0042C17.6513 10.4954 17.064 9.07693 15.9979 8.01081C14.9318 6.94469 13.5133 6.35742 12.0045 6.35742C10.4957 6.35742 9.07717 6.94469 8.01105 8.01081C6.94493 9.07693 6.35767 10.4954 6.35767 12.0042C6.35767 13.5131 6.94493 14.9315 8.01105 15.9977Z" stroke="#0D0E0F" stroke-width="1.5"/>
<path d="M18.7521 6.17234C19.3509 6.17234 19.8363 5.68692 19.8363 5.08812C19.8363 4.48933 19.3509 4.00391 18.7521 4.00391C18.1533 4.00391 17.6678 4.48933 17.6678 5.08812C17.6678 5.68692 18.1533 6.17234 18.7521 6.17234Z" stroke="#0D0E0F" stroke-width="1.5"/>
</g>
<defs>
<clipPath id="clip0_0_396">
<rect width="24" height="24" fill="white"/>
</clipPath>
</defs>
</svg>
