<svg width="56" height="56" viewBox="0 0 56 56" fill="none" xmlns="http://www.w3.org/2000/svg">
<path d="M33.2532 36.7568C33.2183 36.7566 33.188 36.7681 33.1622 36.7913L30.7435 39.2133L28.3216 36.7913C28.2979 36.7681 28.2686 36.7566 28.2338 36.7568C28.1989 36.7566 28.1686 36.7681 28.1428 36.7913C28.1196 36.8171 28.1081 36.8474 28.1083 36.8823C28.1081 36.9172 28.1196 36.9465 28.1428 36.9702L30.5646 39.3921L28.1428 41.8109C28.1196 41.8367 28.1081 41.867 28.1083 41.9019C28.1081 41.9368 28.1196 41.9661 28.1428 41.9898C28.1686 42.0151 28.1989 42.0276 28.2338 42.0274C28.2686 42.0276 28.2979 42.0151 28.3216 41.9898L30.7435 39.5709L33.1622 41.9898C33.188 42.0151 33.2183 42.0276 33.2532 42.0274C33.288 42.0276 33.3173 42.0151 33.341 41.9898C33.3663 41.9661 33.3789 41.9368 33.3786 41.9019C33.3789 41.867 33.3663 41.8367 33.341 41.8109L30.9223 39.3921L33.341 36.9702C33.3663 36.9465 33.3789 36.9172 33.3786 36.8823C33.3789 36.8474 33.3663 36.8171 33.341 36.7913C33.3173 36.7681 33.288 36.7566 33.2532 36.7568Z" fill="#0D0E0F" stroke="white" stroke-width="0.5"/>
<path fill-rule="evenodd" clip-rule="evenodd" d="M36.2797 46.0166H48.4331C48.742 46.0166 48.9716 45.7374 48.9117 45.4346C48.3064 42.3673 45.6019 40.0538 42.3566 40.0538C39.1114 40.0538 36.4068 42.3673 35.8015 45.4346C35.7412 45.7374 35.9708 46.0166 36.2797 46.0166ZM17.591 30.1514C22.1515 30.1514 25.8487 33.8485 25.8487 38.409C25.8487 42.9695 22.1515 46.6667 17.591 46.6667C13.0305 46.6667 9.33337 42.9695 9.33337 38.409C9.33337 33.8485 13.0305 30.1514 17.591 30.1514ZM17.591 33.1709C16.1078 33.1709 14.905 34.3733 14.905 35.8569C14.905 37.3402 16.1073 38.543 17.591 38.543C19.0743 38.543 20.2771 37.3406 20.2771 35.8569C20.2766 34.3733 19.0743 33.1709 17.591 33.1709ZM22.6943 43.1375C23.845 41.8964 24.5481 40.2348 24.5481 38.409C24.5481 34.5667 21.4334 31.452 17.591 31.452C13.7487 31.452 10.634 34.5667 10.634 38.409C10.634 40.2348 11.3375 41.8964 12.4877 43.1375C13.1283 40.9232 15.1703 39.3042 17.591 39.3042C20.0113 39.3038 22.0537 40.9232 22.6943 43.1375ZM28.4813 19.2529V20.2283C28.4813 20.3179 28.4085 20.3907 28.3189 20.3907H27.3435C27.2539 20.3907 27.1811 20.3179 27.1811 20.2283V19.2529C27.1811 19.1633 27.2539 19.0905 27.3435 19.0905H28.3189C28.4085 19.0905 28.4813 19.1637 28.4813 19.2529ZM28.4813 21.9019V22.8773C28.4813 22.9669 28.4085 23.0397 28.3189 23.0397H27.3435C27.2539 23.0397 27.1811 22.9669 27.1811 22.8773V21.9019C27.1811 21.8123 27.2539 21.7395 27.3435 21.7395H28.3189C28.4085 21.7391 28.4813 21.8123 28.4813 21.9019ZM28.4813 16.6043V17.5797C28.4813 17.6693 28.4085 17.7421 28.3189 17.7421H27.3435C27.2539 17.7421 27.1811 17.6693 27.1811 17.5797V16.6043C27.1811 16.5147 27.2539 16.4419 27.3435 16.4419H28.3189C28.4085 16.4419 28.4813 16.5147 28.4813 16.6043ZM44.8523 19.2529V20.2283C44.8523 20.3179 44.7795 20.3907 44.6898 20.3907H43.7145C43.6249 20.3907 43.5521 20.3179 43.5521 20.2283V19.2529C43.5521 19.1633 43.6249 19.0905 43.7145 19.0905H44.6898C44.7795 19.0905 44.8523 19.1637 44.8523 19.2529ZM44.8523 21.9019V22.8773C44.8523 22.9669 44.7795 23.0397 44.6898 23.0397H43.7145C43.6249 23.0397 43.5521 22.9669 43.5521 22.8773V21.9019C43.5521 21.8123 43.6249 21.7395 43.7145 21.7395H44.6898C44.7795 21.7391 44.8523 21.8123 44.8523 21.9019ZM44.8523 16.6043V17.5797C44.8523 17.6693 44.7795 17.7421 44.6898 17.7421H43.7145C43.6249 17.7421 43.5521 17.6693 43.5521 17.5797V16.6043C43.5521 16.5147 43.6249 16.4419 43.7145 16.4419H44.6898C44.7795 16.4419 44.8523 16.5147 44.8523 16.6043ZM35.5288 17.6223H36.5042C36.5938 17.6223 36.6666 17.6951 36.6666 17.7847V18.7601C36.6666 18.8497 36.5938 18.9225 36.5042 18.9225H35.5288C35.4392 18.9225 35.3664 18.8497 35.3664 18.7601V17.7847C35.3664 17.6951 35.4396 17.6223 35.5288 17.6223ZM38.1778 17.6223H39.1532C39.2428 17.6223 39.3156 17.6951 39.3156 17.7847V18.7601C39.3156 18.8497 39.2428 18.9225 39.1532 18.9225H38.1778C38.0882 18.9225 38.0154 18.8497 38.0154 18.7601V17.7847C38.015 17.6951 38.0882 17.6223 38.1778 17.6223ZM32.8802 17.6223H33.8556C33.9452 17.6223 34.018 17.6951 34.018 17.7847V18.7601C34.018 18.8497 33.9452 18.9225 33.8556 18.9225H32.8802C32.7906 18.9225 32.7178 18.8497 32.7178 18.7601V17.7847C32.7178 17.6951 32.7906 17.6223 32.8802 17.6223ZM35.5288 15.2589H36.5042C36.5938 15.2589 36.6666 15.3317 36.6666 15.4213V16.3967C36.6666 16.4863 36.5938 16.5591 36.5042 16.5591H35.5288C35.4392 16.5591 35.3664 16.4863 35.3664 16.3967V15.4213C35.3664 15.3322 35.4396 15.2589 35.5288 15.2589ZM38.1778 15.2589H39.1532C39.2428 15.2589 39.3156 15.3317 39.3156 15.4213V16.3967C39.3156 16.4863 39.2428 16.5591 39.1532 16.5591H38.1778C38.0882 16.5591 38.0154 16.4863 38.0154 16.3967V15.4213C38.015 15.3322 38.0882 15.2589 38.1778 15.2589ZM32.8802 15.2589H33.8556C33.9452 15.2589 34.018 15.3317 34.018 15.4213V16.3967C34.018 16.4863 33.9452 16.5591 33.8556 16.5591H32.8802C32.7906 16.5591 32.7178 16.4863 32.7178 16.3967V15.4213C32.7178 15.3322 32.7906 15.2589 32.8802 15.2589ZM35.5288 12.896H36.5042C36.5938 12.896 36.6666 12.9688 36.6666 13.0584V14.0337C36.6666 14.1233 36.5938 14.1961 36.5042 14.1961H35.5288C35.4392 14.1961 35.3664 14.1233 35.3664 14.0337V13.0584C35.3664 12.9688 35.4396 12.896 35.5288 12.896ZM38.1778 12.896H39.1532C39.2428 12.896 39.3156 12.9688 39.3156 13.0584V14.0337C39.3156 14.1233 39.2428 14.1961 39.1532 14.1961H38.1778C38.0882 14.1961 38.0154 14.1233 38.0154 14.0337V13.0584C38.015 12.9688 38.0882 12.896 38.1778 12.896ZM32.8802 12.896H33.8556C33.9452 12.896 34.018 12.9688 34.018 13.0584V14.0337C34.018 14.1233 33.9452 14.1961 33.8556 14.1961H32.8802C32.7906 14.1961 32.7178 14.1233 32.7178 14.0337V13.0584C32.7178 12.9688 32.7906 12.896 32.8802 12.896ZM35.5288 10.5326H36.5042C36.5938 10.5326 36.6666 10.6054 36.6666 10.695V11.6703C36.6666 11.7599 36.5938 11.8328 36.5042 11.8328H35.5288C35.4392 11.8328 35.3664 11.7599 35.3664 11.6703V10.6954C35.3664 10.6058 35.4396 10.5326 35.5288 10.5326ZM38.1778 10.5326H39.1532C39.2428 10.5326 39.3156 10.6054 39.3156 10.695V11.6703C39.3156 11.7599 39.2428 11.8328 39.1532 11.8328H38.1778C38.0882 11.8328 38.0154 11.7599 38.0154 11.6703V10.6954C38.015 10.6058 38.0882 10.5326 38.1778 10.5326ZM32.8802 10.5326H33.8556C33.9452 10.5326 34.018 10.6054 34.018 10.695V11.6703C34.018 11.7599 33.9452 11.8328 33.8556 11.8328H32.8802C32.7906 11.8328 32.7178 11.7599 32.7178 11.6703V10.6954C32.7178 10.6058 32.7906 10.5326 32.8802 10.5326ZM38.7094 7.72246V7H33.3679V7.72246H38.7094ZM31.3246 9.02305C31.1006 9.02305 30.9184 9.20571 30.9184 9.4293V25.4074H33.8306V20.3006H38.3493V25.4074H41.115V9.4293C41.115 9.20528 40.9324 9.02305 40.7088 9.02305H31.3246ZM45.9887 25.0011V14.4805C45.9887 14.2565 45.8061 14.0742 45.5825 14.0742H42.4161V25.4074H45.5825C45.8061 25.4074 45.9887 25.2251 45.9887 25.0011ZM29.6178 25.4074V14.0742H26.4514C26.2273 14.0742 26.0451 14.2569 26.0451 14.4805V25.0011C26.0451 25.2251 26.2278 25.4074 26.4514 25.4074H29.6178ZM23.0002 15.5054C23.3595 15.5054 23.6503 15.7966 23.6503 16.1554C23.6503 16.5147 23.359 16.8055 23.0002 16.8055H18.2411V25.438L18.4543 25.1239C18.6551 24.8279 19.0575 24.7504 19.3534 24.9512C19.6494 25.1519 19.7269 25.5543 19.5262 25.8502L18.1269 27.9125C17.8646 28.2994 17.2959 28.286 17.0473 27.9013L15.6558 25.8502C15.4551 25.5543 15.5326 25.1515 15.8286 24.9512C16.1246 24.7504 16.5274 24.8279 16.7277 25.1239L16.9409 25.438V16.1559C16.9409 15.7966 17.2322 15.5058 17.591 15.5058L23.0002 15.5054ZM42.3562 32.3799C44.222 32.3799 45.7346 33.8925 45.7346 35.7583C45.7346 37.6241 44.222 39.1367 42.3562 39.1367C40.4904 39.1367 38.9778 37.6241 38.9778 35.7583C38.9778 33.8929 40.4904 32.3799 42.3562 32.3799Z" fill="white"/>
</svg>
