<svg width="10" height="10" viewBox="0 0 10 10" fill="none" xmlns="http://www.w3.org/2000/svg">
<path d="M9.7619 6.34719e-06C9.69571 -0.00042768 9.63817 0.0213977 9.58928 0.0654825L5 4.66072L0.404768 0.0654825C0.35983 0.0213977 0.304275 -0.00042768 0.238101 6.34719e-06C0.171912 -0.00042768 0.114373 0.0213977 0.0654825 0.0654825C0.0213977 0.114373 -0.00042768 0.171912 6.34719e-06 0.238101C-0.00042768 0.304275 0.0213977 0.35983 0.0654825 0.404768L4.66072 5L0.0654825 9.58928C0.0213977 9.63817 -0.00042768 9.69571 6.34719e-06 9.7619C-0.00042768 9.82807 0.0213977 9.88363 0.0654825 9.92857C0.114373 9.9766 0.171912 10.0004 0.238101 9.99999C0.304275 10.0004 0.35983 9.9766 0.404768 9.92857L5 5.33929L9.58928 9.92857C9.63817 9.9766 9.69571 10.0004 9.7619 9.99999C9.82807 10.0004 9.88363 9.9766 9.92857 9.92857C9.9766 9.88363 10.0004 9.82807 9.99999 9.7619C10.0004 9.69571 9.9766 9.63817 9.92857 9.58928L5.33929 5L9.92857 0.404768C9.9766 0.35983 10.0004 0.304275 9.99999 0.238101C10.0004 0.171912 9.9766 0.114373 9.92857 0.0654825C9.88363 0.0213977 9.82807 -0.00042768 9.7619 6.34719e-06Z" fill="#0D0E0F"/>
</svg>
