<svg width="24" height="24" viewBox="0 0 24 24" fill="none" xmlns="http://www.w3.org/2000/svg">
<path d="M5.83961 8.15426H1.14471V23.126H5.83961V8.15426Z" stroke="#0D0E0F" stroke-width="1.5"/>
<path d="M18.539 7.82988C18.3659 7.80824 18.182 7.79743 17.9981 7.78661C15.3694 7.67843 13.8874 9.23618 13.3681 9.90688C13.2275 10.0908 13.1626 10.199 13.1626 10.199V8.19768H8.67325V23.1694H13.1626H13.3681C13.3681 21.6441 13.3681 20.1296 13.3681 18.6043C13.3681 17.7822 13.3681 16.96 13.3681 16.1379C13.3681 15.121 13.2924 14.0393 13.8009 13.1089C14.2336 12.3301 15.0124 11.9406 15.8887 11.9406C18.4849 11.9406 18.539 14.2881 18.539 14.5044C18.539 14.5152 18.539 14.5261 18.539 14.5261V23.2343H23.2339V13.4659C23.2339 10.1232 21.5355 8.15441 18.539 7.82988Z" stroke="#0D0E0F" stroke-width="1.5"/>
<path d="M3.49202 6.21809C4.99759 6.21809 6.2181 4.99759 6.2181 3.49203C6.2181 1.98646 4.99759 0.765957 3.49202 0.765957C1.98645 0.765957 0.765957 1.98646 0.765957 3.49203C0.765957 4.99759 1.98645 6.21809 3.49202 6.21809Z" stroke="#0D0E0F" stroke-width="1.5"/>
</svg>
