<svg width="24" height="24" viewBox="0 0 24 24" fill="none" xmlns="http://www.w3.org/2000/svg">
<path fill-rule="evenodd" clip-rule="evenodd" d="M13.6069 3.58425L19.5709 8.58535C19.6253 8.63095 19.6784 8.67492 19.73 8.71772C20.5388 9.38816 21.0009 9.77124 21 11.6503V17.9993C21 19.9993 20 20.9993 18 20.9993H6C4 20.9993 3 19.9993 3 17.9993V11.6503C3 9.77243 3.46282 9.38838 4.27067 8.718C4.32235 8.67511 4.37545 8.63105 4.42993 8.58535L10.3939 3.58425C11.3229 2.80525 12.6779 2.80525 13.6069 3.58425ZM12.8347 13.7608H11.3446C11.3863 14.5908 11.0575 15.353 10.74 15.8851L14.0111 15.8858L14.0108 17L9.57687 16.999L9.19575 16.0891L9.2315 16.0519C9.24275 16.0404 10.3196 14.9085 10.2264 13.7607H9V12.6464H9.90986C9.72437 11.9028 9.40774 9.90197 11.1071 9.18548C11.5385 9.00348 12.0276 8.95423 12.5221 9.04298C13.4547 9.21023 14.3958 9.9371 14.3958 11.1842V11.2628H13.2814V11.1842C13.2814 10.3358 12.4233 10.1573 12.3255 10.1398C12.0435 10.0892 11.7723 10.1145 11.5402 10.2123C10.5391 10.6345 10.9042 12.1177 11.0717 12.6466H12.8347V13.7608Z" fill="#0D0E0F"/>
</svg>
