<svg width="24" height="24" viewBox="0 0 24 24" fill="none" xmlns="http://www.w3.org/2000/svg">
<path d="M19.718 9.44338C19.718 9.06728 19.672 9.00098 19.5742 9.00098C19.4765 9.00098 19.4299 9.06728 19.4299 9.44338C19.4299 9.81973 19.4762 9.88603 19.5742 9.88603C19.6717 9.88603 19.718 9.81973 19.718 9.44338Z" fill="white"/>
<path d="M19.3885 10.5874C19.3885 10.2113 19.3419 10.1445 19.2442 10.1445C19.1469 10.1445 19.1001 10.2108 19.1001 10.5874C19.1001 10.964 19.1462 11.0306 19.2442 11.0306C19.3419 11.0306 19.3885 10.964 19.3885 10.5874Z" fill="white"/>
<path d="M19.0893 9.44338C19.0893 9.06728 19.0432 9.00098 18.9454 9.00098C18.8477 9.00098 18.8014 9.06728 18.8014 9.44338C18.8014 9.81973 18.8475 9.88603 18.9454 9.88603C19.0429 9.88603 19.0893 9.81973 19.0893 9.44338Z" fill="white"/>
<path d="M21.2102 13.0736V6H18.8868V7.74549C18.6559 7.77816 18.2311 7.87249 18.2311 8.12184C18.2311 8.39948 18.7724 8.52623 19.2755 8.52623C19.7784 8.52623 20.32 8.39996 20.32 8.12184C20.32 7.85421 19.8491 7.76475 19.5995 7.73623V6.80779H20.4977V12.1189C20.3034 11.9609 20.0536 11.8619 19.7774 11.8619C19.4386 11.8619 19.1273 12.0048 18.918 12.251C18.7086 12.005 18.3971 11.8619 18.0587 11.8619C17.7363 11.8619 17.0092 11.9936 16.7998 12.2195C16.5904 11.9936 16.2872 11.8619 15.9647 11.8619C15.6264 11.8619 14.8912 12.0048 14.6816 12.251C14.3966 11.9161 13.0619 11.772 12.6092 11.9219C12.1566 11.7718 10.8218 11.9163 10.5369 12.251C10.3275 12.0053 10.0162 11.8619 9.67764 11.8619C9.35516 11.8619 9.05218 11.9933 8.84279 12.2193C8.63341 11.9933 8.33019 11.8619 8.00771 11.8619C7.66914 11.8619 7.35763 12.005 7.14824 12.251C6.93886 12.0053 6.62759 11.8619 6.28878 11.8619C5.78593 11.8619 5.36473 12.1808 5.22944 12.6132C4.72781 12.472 4.03044 12.2812 3.0569 12.0214C2.67275 11.9226 2.27593 12.153 2.17648 12.5167C2.12382 12.7095 2.22888 12.9827 2.27836 13.0948C2.0936 13.478 2 13.8846 2 14.3043V15.9945C2 16.7423 2.29859 17.4224 2.78268 17.936H20.7168C21.2014 17.4224 21.5 16.7421 21.5 15.994V14.3043C21.5 13.8778 21.4018 13.4641 21.2102 13.0736ZM20.4975 12.9912H6.46672C6.37507 12.9527 6.12644 12.8686 5.432 12.6709C5.54218 12.3273 5.88221 12.074 6.28829 12.074C6.60639 12.074 6.89426 12.2281 7.0583 12.4859L7.14776 12.6261L7.23721 12.4859C7.4015 12.2278 7.68937 12.074 8.00722 12.074C8.30898 12.074 8.58881 12.2139 8.75578 12.4482L8.84206 12.5693L8.92835 12.4482C9.09532 12.2139 9.37514 12.074 9.67691 12.074C9.99476 12.074 10.2826 12.2281 10.4469 12.4859L10.5364 12.6261L10.6258 12.4859C10.8467 12.1386 12.1505 11.9792 12.5722 12.134L12.6087 12.1474L12.6453 12.134C13.0667 11.9797 14.3706 12.1391 14.5914 12.4859L14.6809 12.6263L14.7703 12.4859C14.9344 12.2278 15.6461 12.074 15.9637 12.074C16.2655 12.074 16.5455 12.2139 16.7125 12.4484L16.7988 12.5695L16.8853 12.4484C17.0523 12.2139 17.7558 12.074 18.0578 12.074C18.3759 12.074 18.6635 12.2281 18.8278 12.4859L18.9167 12.6261L19.0064 12.4859C19.1707 12.2278 19.4584 12.074 19.7764 12.074C20.0724 12.074 20.3332 12.2095 20.4967 12.4148V12.9912H20.4975Z" fill="white"/>
</svg>
