<svg width="56" height="56" viewBox="0 0 56 56" fill="none" xmlns="http://www.w3.org/2000/svg">
<path fill-rule="evenodd" clip-rule="evenodd" d="M44.0444 36.1055C44.2215 36.1868 44.3333 36.3632 44.3333 36.558V43.1215C44.3333 43.2068 44.3109 43.2918 44.2691 43.3662C42.4389 46.6185 40.9862 47.9852 38.106 49.9681C37.9367 50.0846 37.7131 50.0846 37.5439 49.968C34.6642 47.9852 33.2114 46.6185 31.3813 43.3662C31.3394 43.2918 31.317 43.2068 31.317 43.1215V36.5582C31.317 36.3633 31.429 36.1868 31.6062 36.1055C32.7911 35.5614 36.6811 33.7813 37.6187 33.3524C37.7507 33.2919 37.8959 33.2919 38.0279 33.3523C38.9658 33.7811 42.8585 35.561 44.0444 36.1055ZM16.8351 12.5373C17.1112 12.5373 17.3351 12.3135 17.3351 12.0373V10.9235C17.3351 10.6473 17.5589 10.4235 17.8351 10.4235H21.0084C21.2686 10.4235 21.4819 10.2218 21.5308 9.96623C22.281 6.03907 28.2199 5.98344 28.9717 9.96654C29.0199 10.2221 29.2333 10.4235 29.4934 10.4235H32.6669C32.9431 10.4235 33.1669 10.6473 33.1669 10.9235V12.0373C33.1669 12.3135 33.3908 12.5373 33.6669 12.5373H38.3349C38.611 12.5373 38.8349 12.7612 38.8349 13.0373V31.8155C38.8349 32.1801 38.4572 32.4221 38.1259 32.2698L38.0322 32.2267C37.8996 32.1657 37.7469 32.1657 37.6143 32.2267L37.4926 32.2827C37.1613 32.4351 36.7836 32.1931 36.7836 31.8284V15.0891C36.7836 14.813 36.5598 14.5891 36.2836 14.5891H33.6669C33.3908 14.5891 33.1669 14.813 33.1669 15.0891V16.4033C33.1669 16.6794 32.9431 16.9033 32.6669 16.9033H17.8351C17.5589 16.9033 17.3351 16.6794 17.3351 16.4033V15.0891C17.3351 14.813 17.1112 14.5891 16.8351 14.5891H14.2184C13.9423 14.5891 13.7184 14.813 13.7184 15.0891V45.7043C13.7184 45.9804 13.9423 46.2043 14.2184 46.2043H31.7083C31.8687 46.2043 32.019 46.2815 32.115 46.4101C32.3595 46.7375 32.6149 47.0544 32.8826 47.3608C33.1783 47.6991 32.9471 48.2561 32.4977 48.2561H12.1666C11.8905 48.2561 11.6666 48.0322 11.6666 47.7561V13.0373C11.6666 12.7612 11.8905 12.5373 12.1666 12.5373H16.8351ZM16.5723 20.6021C16.5723 20.326 16.7962 20.1021 17.0723 20.1021H33.4405C33.7166 20.1021 33.9405 20.326 33.9405 20.6021V21.7408C33.9405 22.017 33.7166 22.2408 33.4405 22.2408H17.0723C16.7962 22.2408 16.5723 22.017 16.5723 21.7408V20.6021ZM16.5723 24.7241C16.5723 24.4479 16.7962 24.2241 17.0723 24.2241H33.4405C33.7166 24.2241 33.9405 24.4479 33.9405 24.7241V25.8628C33.9405 26.1389 33.7166 26.3628 33.4405 26.3628H17.0723C16.7962 26.3628 16.5723 26.1389 16.5723 25.8628V24.7241ZM16.5723 32.9679C16.5723 32.6918 16.7962 32.4679 17.0723 32.4679H33.4405C33.7166 32.4679 33.9405 32.6918 33.9405 32.9679V33.5892C33.9405 33.7848 33.8264 33.9625 33.6485 34.0438L32.5162 34.5618C32.4509 34.5917 32.38 34.6072 32.3082 34.6072H17.0723C16.7962 34.6072 16.5723 34.3833 16.5723 34.1072V32.9679ZM16.5723 28.846C16.5723 28.5698 16.7962 28.346 17.0723 28.346H33.4405C33.7166 28.346 33.9405 28.5698 33.9405 28.846V29.9852C33.9405 30.2614 33.7166 30.4852 33.4405 30.4852H17.0723C16.7962 30.4852 16.5723 30.2614 16.5723 29.9852V28.846ZM16.5723 37.0904C16.5723 36.8142 16.7962 36.5904 17.0723 36.5904H29.7909C30.067 36.5904 30.2909 36.8142 30.2909 37.0904V38.2291C30.2909 38.5052 30.067 38.7291 29.7909 38.7291H17.0723C16.7962 38.7291 16.5723 38.5052 16.5723 38.2291V37.0904ZM16.5723 41.2123C16.5723 40.9362 16.7962 40.7123 17.0723 40.7123H29.7909C30.067 40.7123 30.2909 40.9362 30.2909 41.2123V42.351C30.2909 42.6272 30.067 42.851 29.7909 42.851H17.0723C16.7962 42.851 16.5723 42.6272 16.5723 42.351V41.2123ZM33.988 41.888C33.3667 41.2662 34.3119 40.321 34.9337 40.9428L36.6549 42.6644C36.8572 42.8668 37.188 42.8584 37.3797 42.6458L40.6934 38.9725C41.2802 38.321 42.2723 39.2133 41.6861 39.8654L37.5701 44.4272C37.3202 44.7344 36.8592 44.7592 36.5785 44.4785L33.988 41.888Z" fill="white"/>
</svg>
