<svg width="56" height="56" viewBox="0 0 56 56" fill="none" xmlns="http://www.w3.org/2000/svg">
<path d="M47.9143 48.4107C47.9143 48.5669 47.8522 48.7167 47.7418 48.8272C47.6313 48.9376 47.4815 48.9997 47.3253 48.9997H10.0662C9.91004 48.9997 9.76023 48.9376 9.64978 48.8272C9.53932 48.7167 9.47727 48.5669 9.47727 48.4107C9.47727 48.2545 9.53932 48.1047 9.64978 47.9942C9.76023 47.8838 9.91004 47.8217 10.0662 47.8217H11.739V38.0642C11.739 37.908 11.801 37.7582 11.9115 37.6477C12.0219 37.5373 12.1717 37.4752 12.3279 37.4752C12.4842 37.4752 12.634 37.5373 12.7444 37.6477C12.8549 37.7582 12.9169 37.908 12.9169 38.0642V47.8296H15.8265V35.0172C15.8265 34.861 15.8886 34.7112 15.999 34.6007C16.1095 34.4903 16.2593 34.4282 16.4155 34.4282C16.5717 34.4282 16.7215 34.4903 16.832 34.6007C16.9424 34.7112 17.0045 34.861 17.0045 35.0172V47.8296H19.914V32.9715C19.914 32.8153 19.9761 32.6655 20.0866 32.555C20.197 32.4446 20.3468 32.3825 20.503 32.3825C20.6592 32.3825 20.809 32.4446 20.9195 32.555C21.03 32.6655 21.092 32.8153 21.092 32.9715V47.8296H24.0016V37.6716C24.0016 37.5154 24.0636 37.3655 24.1741 37.2551C24.2846 37.1446 24.4344 37.0826 24.5906 37.0826C24.7468 37.0826 24.8966 37.1446 25.007 37.2551C25.1175 37.3655 25.1796 37.5154 25.1796 37.6716V47.8296H28.0931V38.0839C28.0931 37.9276 28.1551 37.7778 28.2656 37.6674C28.376 37.5569 28.5258 37.4949 28.682 37.4949C28.8382 37.4949 28.9881 37.5569 29.0985 37.6674C29.209 37.7778 29.271 37.9276 29.271 38.0839V47.8296H32.1963V35.3431C32.1963 35.1869 32.2584 35.0371 32.3688 34.9266C32.4793 34.8162 32.6291 34.7541 32.7853 34.7541C32.9415 34.7541 33.0913 34.8162 33.2018 34.9266C33.3122 35.0371 33.3743 35.1869 33.3743 35.3431V47.8296H36.2838V30.9454C36.2838 30.7892 36.3459 30.6394 36.4564 30.5289C36.5668 30.4185 36.7166 30.3564 36.8728 30.3564C37.029 30.3564 37.1789 30.4185 37.2893 30.5289C37.3998 30.6394 37.4618 30.7892 37.4618 30.9454V47.8296H40.3714V26.8146C40.3714 26.7373 40.3866 26.6607 40.4162 26.5893C40.4458 26.5178 40.4892 26.4529 40.5439 26.3982C40.5986 26.3435 40.6635 26.3001 40.735 26.2705C40.8064 26.2409 40.883 26.2257 40.9604 26.2257C41.0377 26.2257 41.1143 26.2409 41.1858 26.2705C41.2572 26.3001 41.3222 26.3435 41.3768 26.3982C41.4315 26.4529 41.4749 26.5178 41.5045 26.5893C41.5341 26.6607 41.5494 26.7373 41.5494 26.8146V47.8178H44.4589V18.6474C44.4589 18.4912 44.521 18.3414 44.6314 18.2309C44.7419 18.1205 44.8917 18.0584 45.0479 18.0584C45.2041 18.0584 45.3539 18.1205 45.4644 18.2309C45.5748 18.3414 45.6369 18.4912 45.6369 18.6474V47.8296H47.3253C47.4802 47.8295 47.6288 47.8905 47.739 47.9993C47.8493 48.1081 47.9122 48.2558 47.9143 48.4107ZM10.2194 33.9178L21.1627 27.9219L25.9177 34.2319C25.973 34.3046 26.0443 34.3637 26.1259 34.4045C26.2076 34.4453 26.2976 34.4669 26.3889 34.4675C26.5171 34.4678 26.6416 34.425 26.7423 34.3458L41.0232 23.5713C41.088 23.5259 41.1429 23.4678 41.1848 23.4006C41.2266 23.3334 41.2545 23.2585 41.2667 23.1803C41.279 23.1022 41.2753 23.0223 41.256 22.9455C41.2367 22.8688 41.2022 22.7967 41.1544 22.7336C41.1066 22.6705 41.0466 22.6177 40.9779 22.5783C40.9093 22.539 40.8334 22.5138 40.7548 22.5044C40.6763 22.495 40.5966 22.5015 40.5206 22.5236C40.4446 22.5457 40.3738 22.5828 40.3125 22.6329L26.5028 33.0539L21.7792 26.8146C21.6933 26.7024 21.5702 26.6244 21.4319 26.5949C21.2937 26.5654 21.1495 26.5862 21.0253 26.6537L9.63826 32.9008C9.57045 32.9382 9.51067 32.9886 9.46233 33.049C9.41399 33.1095 9.37804 33.179 9.35653 33.2533C9.33501 33.3277 9.32836 33.4056 9.33695 33.4826C9.34554 33.5595 9.3692 33.634 9.40659 33.7018C9.48209 33.8388 9.6089 33.9401 9.75912 33.9836C9.8335 34.0051 9.91139 34.0117 9.98834 34.0031C10.0653 33.9945 10.1398 33.9709 10.2076 33.9335L10.2194 33.9178ZM24.4924 17.4537C24.4924 16.6368 24.7347 15.8381 25.1886 15.1588C25.6425 14.4795 26.2876 13.9501 27.0424 13.6374C27.7972 13.3248 28.6277 13.243 29.429 13.4024C30.2303 13.5618 30.9663 13.9552 31.544 14.5329C32.1217 15.1106 32.5151 15.8466 32.6745 16.6479C32.8339 17.4492 32.7521 18.2797 32.4394 19.0345C32.1268 19.7893 31.5973 20.4344 30.9181 20.8883C30.2388 21.3422 29.4401 21.5845 28.6231 21.5845C27.5282 21.5824 26.4788 21.1465 25.7046 20.3723C24.9304 19.5981 24.4945 18.5486 24.4924 17.4537ZM26.4282 17.4537C26.4292 18.0352 26.6609 18.5925 27.0725 19.0033C27.484 19.414 28.0417 19.6448 28.6231 19.6448C28.7549 19.6458 28.8864 19.634 29.0158 19.6094C29.2372 19.7918 29.5143 19.893 29.8011 19.8961C30.1378 19.895 30.4604 19.7605 30.6982 19.5221C30.9359 19.2836 31.0694 18.9606 31.0694 18.6239C31.0672 18.3369 30.966 18.0594 30.7827 17.8385C30.8071 17.7091 30.8189 17.5776 30.8181 17.4459C30.8306 17.1501 30.7832 16.8548 30.6786 16.5779C30.574 16.3009 30.4145 16.0479 30.2096 15.8342C30.0048 15.6205 29.7588 15.4504 29.4865 15.3342C29.2142 15.218 28.9212 15.1581 28.6251 15.1581C28.329 15.1581 28.036 15.218 27.7637 15.3342C27.4914 15.4504 27.2454 15.6205 27.0406 15.8342C26.8357 16.0479 26.6762 16.3009 26.5716 16.5779C26.4671 16.8548 26.4196 17.1501 26.4321 17.4459L26.4282 17.4537ZM28.5446 18.4589C28.5842 18.1872 28.7115 17.9357 28.9071 17.743C29.1028 17.5502 29.356 17.4266 29.6283 17.3909C29.6135 17.1975 29.5436 17.0125 29.4267 16.8577C29.3098 16.703 29.151 16.585 28.9691 16.5178C28.7871 16.4507 28.5897 16.4372 28.4003 16.4789C28.2109 16.5206 28.0375 16.6158 27.9006 16.7532C27.7637 16.8905 27.6692 17.0643 27.6281 17.2539C27.5871 17.4434 27.6013 17.6408 27.6691 17.8224C27.737 18.0041 27.8555 18.1625 28.0107 18.2789C28.1659 18.3952 28.3512 18.4645 28.5446 18.4786V18.4589ZM17.0123 17.8817C16.9571 17.8252 16.9137 17.7583 16.8847 17.6848C16.8557 17.6113 16.8417 17.5327 16.8435 17.4537C16.843 17.3735 16.8592 17.2941 16.891 17.2204C16.9227 17.1468 16.9694 17.0805 17.028 17.0257L22.6155 11.7249C24.2387 10.1889 26.3885 9.33301 28.6231 9.33301C30.8578 9.33301 33.0076 10.1889 34.6308 11.7249L40.234 17.0257C40.2898 17.0818 40.3335 17.1487 40.3625 17.2223C40.3916 17.2959 40.4053 17.3747 40.4028 17.4537C40.4025 17.5339 40.3861 17.6131 40.3543 17.6866C40.3226 17.7602 40.2763 17.8266 40.2183 17.8817L34.6308 23.1826C33.0063 24.7159 30.857 25.5701 28.6231 25.5701C26.3893 25.5701 24.24 24.7159 22.6155 23.1826L17.0123 17.8817ZM23.2948 17.4537C23.2956 18.5027 23.6071 19.5279 24.19 20.4C24.773 21.272 25.6012 21.9519 26.5702 22.3536C27.5391 22.7554 28.6054 22.8611 29.6344 22.6574C30.6634 22.4537 31.609 21.9498 32.3518 21.2091C33.0946 20.4685 33.6014 19.5244 33.8081 18.496C34.0148 17.4677 33.9123 16.4011 33.5133 15.4309C33.1144 14.4608 32.4371 13.6306 31.5667 13.045C30.6964 12.4595 29.6721 12.145 28.6231 12.1411C27.2151 12.1432 25.8655 12.7037 24.8702 13.6997C23.875 14.6957 23.3155 16.0457 23.3144 17.4537H23.2948Z" fill="white"/>
</svg>
