<svg width="24" height="24" viewBox="0 0 24 24" fill="none" xmlns="http://www.w3.org/2000/svg">
<path d="M20.8084 18.8843L17.4598 15.5357C18.5792 14.2079 19.2566 12.4966 19.2566 10.6283C19.2566 6.42183 15.8347 3 11.6283 3C7.42183 3 4 6.42183 4 10.6283C4 14.8347 7.42183 18.2566 11.6283 18.2566C13.4966 18.2566 15.2079 17.5792 16.5357 16.4598L19.8843 19.8084C20.0115 19.9357 20.179 20.0002 20.3463 20.0002C20.5137 20.0002 20.6811 19.9366 20.8084 19.8084C21.0639 19.5538 21.0639 19.1397 20.8084 18.8843ZM5.30771 10.6283C5.30771 7.14282 8.14282 4.30771 11.6283 4.30771C15.1138 4.30771 17.9489 7.14282 17.9489 10.6283C17.9489 14.1138 15.1138 16.9489 11.6283 16.9489C8.14282 16.9489 5.30771 14.1138 5.30771 10.6283Z" fill="#0D0E0F"/>
</svg>
